<svg width="21" height="24" viewBox="0 0 21 24" fill="none" xmlns="http://www.w3.org/2000/svg">
<path d="M10.8027 23.2509C10.7682 23.2816 10.7355 23.3105 10.7049 23.3375C10.6742 23.3105 10.6416 23.2816 10.607 23.2509C10.3367 23.0111 9.94963 22.6616 9.48479 22.2248C8.55449 21.3505 7.31568 20.1292 6.07842 18.7387C4.83944 17.3463 3.6119 15.7952 2.69677 14.2613C1.77475 12.7158 1.20488 11.2451 1.20488 10C1.20488 4.75329 5.45817 0.5 10.7049 0.5C15.9516 0.5 20.2049 4.75329 20.2049 10C20.2049 11.2451 19.635 12.7158 18.713 14.2613C17.7979 15.7952 16.5703 17.3463 15.3313 18.7387C14.0941 20.1292 12.8553 21.3505 11.925 22.2248C11.4601 22.6616 11.0731 23.0111 10.8027 23.2509Z" stroke="#AB9A88"/>
<path d="M15.2049 10C15.2049 12.4853 13.1902 14.5 10.7049 14.5C8.2196 14.5 6.20488 12.4853 6.20488 10C6.20488 7.51472 8.2196 5.5 10.7049 5.5C13.1902 5.5 15.2049 7.51472 15.2049 10Z" stroke="#AB9A88"/>
</svg>
